<?xml version="1.0" encoding="UTF-8" standalone="no"?>
<!-- Created with Inkscape (http://www.inkscape.org/) -->

<svg
   version="1.1"
   id="svg1"
   width="1024"
   height="1024"
   viewBox="0 0 1024 1024"
   sodipodi:docname="modelx-logo-mark.svg"
   inkscape:version="1.4.2 (f4327f4, 2025-05-13)"
   inkscape:export-filename="favicon-16x16.png"
   inkscape:export-xdpi="1.5"
   inkscape:export-ydpi="1.5"
   xmlns:inkscape="http://www.inkscape.org/namespaces/inkscape"
   xmlns:sodipodi="http://sodipodi.sourceforge.net/DTD/sodipodi-0.dtd"
   xmlns="http://www.w3.org/2000/svg"
   xmlns:svg="http://www.w3.org/2000/svg">
  <defs
     id="defs1" />
  <sodipodi:namedview
     id="namedview1"
     pagecolor="#ffffff"
     bordercolor="#000000"
     borderopacity="0.25"
     inkscape:showpageshadow="2"
     inkscape:pageopacity="0.0"
     inkscape:pagecheckerboard="0"
     inkscape:deskcolor="#d1d1d1"
     inkscape:zoom="0.78808594"
     inkscape:cx="513.2689"
     inkscape:cy="512"
     inkscape:window-width="1920"
     inkscape:window-height="1009"
     inkscape:window-x="-8"
     inkscape:window-y="-8"
     inkscape:window-maximized="1"
     inkscape:current-layer="g1" />
  <g
     inkscape:groupmode="layer"
     inkscape:label="Image"
     id="g1">
    <path
       style="fill:#000000"
       d="M 2.5377943,512 V 0 H 514.53779 1026.5378 v 512 512 H 514.53779 2.5377943 Z M 358.63061,575.44116 c 59.08202,-28.64273 80.15598,-39.00557 120.52992,-59.26901 l 35.12273,-17.62788 8.87727,4.3707 c 4.88249,2.40389 13.60226,6.75052 19.37726,9.65917 15.77106,7.94329 36.29645,18.10508 57.5,28.46733 10.45,5.10695 21.025,10.30258 23.5,11.54584 26.91974,13.52256 89.46621,43.24259 90.13505,42.82922 1.86576,-1.1531 0.61828,-3.07523 -4.3727,-6.7375 -4.73776,-3.47646 -32.06849,-21.37278 -50.0333,-32.7621 -3.97598,-2.52069 -14.42905,-9.21535 -23.22905,-14.87703 -8.8,-5.66168 -20.95,-13.39676 -27,-17.18907 -6.05,-3.79231 -18.2,-11.60523 -27,-17.36204 -8.8,-5.75681 -18.025,-11.6902 -20.5,-13.18532 -2.475,-1.49512 -12.50688,-8.0235 -22.29308,-14.50753 C 520.16871,466.15678 516.50307,464 514.09768,464 c -1.54016,0 -6.44811,2.99173 -27.05989,16.49487 -6.05,3.96346 -15.05,9.81601 -20,13.00567 -4.95,3.18966 -14.625,9.51014 -21.5,14.04551 -6.875,4.53538 -24.2,15.64737 -38.5,24.69332 -53.85315,34.06665 -92.5,59.6424 -92.5,61.21474 0,1.02267 0.90313,2.54589 1.50949,2.54589 0.0969,0 19.25938,-9.25148 42.58333,-20.55884 z m 196.40718,-60.37267 c -7.70242,-3.07381 -22.02597,-9.85659 -27.5,-13.02237 C 523.47169,499.69459 515.48153,496 514.46206,496 c -0.38504,0 -9.14082,4.093 -19.45729,9.09556 C 479.55556,512.58703 469.55633,517 468.03078,517 c -0.14056,0 -0.78577,-2.10565 -1.4338,-4.67923 -0.64804,-2.57358 -2.03635,-5.88433 -3.08515,-7.35722 -1.89225,-2.65743 -1.88987,-2.69321 0.30953,-4.6581 2.49434,-2.22838 29.88504,-21.07423 42.43795,-29.19893 l 8.22152,-5.32127 8.96727,5.65816 c 12.73614,8.03623 36.10259,24.25061 39.2518,27.23748 2.2397,2.12425 2.51619,2.94492 1.74245,5.172 -0.50582,1.45591 -1.25377,5.20356 -1.66212,8.3281 l -0.74244,5.681 z M 353.3586,561.30117 c 14.25257,-10.02673 35.18697,-25.05605 46.17919,-33.15318 6.325,-4.65914 14.92381,-10.98595 19.10847,-14.05958 4.18465,-3.07362 12.44747,-9.18841 18.36181,-13.58841 5.91434,-4.4 12.39053,-9.08055 14.39153,-10.40121 2.00101,-1.32067 3.86319,-2.72395 4.13819,-3.1184 0.275,-0.39445 5,-3.91917 10.5,-7.83271 30.40769,-21.63667 31.70306,-22.75568 33.57518,-29.00428 1.12604,-3.75837 1.03748,-4.62703 -0.85812,-8.41714 -1.81543,-3.62982 -9.31946,-11.15867 -12.68431,-12.72626 -1.97933,-0.92211 -45.03504,-32.18071 -48.62876,-35.30465 -0.87781,-0.76306 -3.80281,-2.90468 -6.5,-4.75915 -2.6972,-1.85448 -6.02899,-4.36335 -7.40399,-5.57529 -3.94786,-3.47966 -62.71973,-45.77341 -71.72856,-51.61771 -4.6107,-2.9911 -7.27144,-3.50189 -7.27144,-1.39592 0,1.248 4.46435,5.0805 38.97098,33.45536 6.89096,5.66645 14.7125,12.19145 17.3812,14.5 2.6687,2.30855 5.65059,4.49978 6.62641,4.86941 0.97582,0.36963 2.76048,2.05713 3.96591,3.75 1.20543,1.69287 2.64126,3.07795 3.19075,3.07795 0.91533,0 2.81282,1.6795 11.36545,10.05977 1.65039,1.61713 3.46268,2.94023 4.02732,2.94023 0.56463,0 2.23885,1.2375 3.72048,2.75 1.48163,1.5125 4.30818,4.1 6.28122,5.75 1.97304,1.65 5.3784,4.6875 7.56746,6.75 2.18906,2.0625 4.56548,3.75 5.28095,3.75 0.71546,0 1.81342,1.125 2.43992,2.5 0.62649,1.375 1.74257,2.5 2.48018,2.5 0.7376,0 2.31927,1.125 3.51482,2.5 1.19555,1.375 2.82137,2.5 3.61295,2.5 0.79157,0 1.71608,0.87229 2.05445,1.93841 0.33838,1.06613 2.2812,3.40116 4.31739,5.18895 3.13112,2.74916 3.70216,3.87856 3.70216,7.32205 0,3.27934 -0.77082,4.99367 -3.96176,8.81105 -2.17897,2.60675 -4.36093,4.73954 -4.84879,4.73954 -0.48787,0 -2.1908,1.2375 -3.7843,2.75 -1.5935,1.5125 -4.71627,4.325 -6.93951,6.25 -5.00394,4.3327 -11.65106,10.35652 -14.97643,13.5721 -1.38094,1.33535 -2.92399,2.4279 -3.429,2.4279 -0.50501,0 -2.52515,1.59627 -4.48921,3.54728 -7.29946,7.25095 -8.66946,8.45272 -9.63597,8.45272 -0.54431,0 -2.1878,1.2375 -3.65219,2.75 -1.4644,1.5125 -3.9271,3.74154 -5.47269,4.95343 -1.54558,1.21188 -7.53515,6.18642 -13.31015,11.05452 -11.86785,10.00414 -51.22993,42.88828 -54.30049,45.36409 -1.79545,1.44768 -1.90802,4.87796 -0.16009,4.87796 0.33121,0 3.60783,-2.11448 7.28139,-4.69883 z m 114.14401,-90.23543 c 0.56935,-1.06384 1.03518,-3.13825 1.03518,-4.60979 0,-1.80568 1.58622,-4.41111 4.87899,-8.01392 6.32897,-6.9249 7.10116,-10.57428 3.67014,-17.34507 -1.62916,-3.215 -4.12801,-6.08718 -7.03762,-8.08904 -2.48133,-1.7072 -4.51151,-3.50206 -4.51151,-3.98857 0,-0.48652 -0.7875,-1.13874 -1.75,-1.44939 C 460.10561,426.38153 456.40646,415 459.70239,415 c 0.64053,0 5.62266,3.0375 11.07141,6.75 5.44874,3.7125 10.64316,7.2 11.54316,7.75 0.9,0.55 2.2605,1.57299 3.02334,2.27331 0.76283,0.70032 2.58184,1.89507 4.04223,2.65499 6.58696,3.42755 9.44764,10.54283 6.79305,16.89616 -1.46862,3.5149 -11.65932,11.88614 -22.45424,18.44522 -6.1628,3.74457 -7.70067,4.06508 -6.21873,1.29606 z m 216.29961,94.33649 c 0.32877,-0.32877 0.35229,-1.23746 0.0523,-2.01932 -0.5927,-1.54445 -23.38312,-21.23571 -48.81673,-42.17833 -8.8,-7.24612 -17.14194,-14.30647 -18.53765,-15.68967 C 615.10443,504.13171 613.44757,503 612.81823,503 c -0.62934,0 -2.10554,-1.35 -3.28044,-3 -1.1749,-1.65 -2.63609,-3 -3.24709,-3 -0.61099,0 -2.58686,-1.4625 -4.39081,-3.25 -1.80395,-1.7875 -4.7609,-4.47709 -6.571,-5.97688 -1.81011,-1.49978 -4.82034,-4.08728 -6.68941,-5.75 -1.86908,-1.66271 -3.89408,-3.02597 -4.5,-3.02944 -0.60593,-0.003 -1.89301,-1.39661 -2.86018,-3.09584 -0.96718,-1.69924 -2.63372,-3.3184 -3.70344,-3.59813 -1.06971,-0.27974 -2.65126,-1.58661 -3.51455,-2.90416 -0.8633,-1.31755 -2.34675,-2.3984 -3.29657,-2.40187 -0.94982,-0.003 -2.49352,-1.35348 -3.43044,-3 -1.00604,-1.768 -2.52697,-2.99368 -3.71482,-2.99368 -1.10623,0 -2.53115,-1.0125 -3.1665,-2.25 -0.63535,-1.2375 -2.50726,-3.67928 -4.1598,-5.42618 -2.72501,-2.8806 -2.94195,-3.59409 -2.33118,-7.66698 0.47883,-3.19307 1.37575,-4.95098 3.1038,-6.08324 2.32821,-1.5255 6.04755,-7.33137 5.22412,-8.15481 -0.92113,-0.92113 -7.25476,4.84934 -9.55333,8.70389 -4.41119,7.39724 -2.94197,12.02112 6.69295,21.06383 3.33241,3.12758 6.65511,6.05258 7.38377,6.5 2.42135,1.48678 9.72448,13.4448 9.72448,15.92269 0,0.93217 -1.77255,0.25569 -3.56144,-1.3592 -2.26107,-2.04114 -10.1353,-7.25 -10.95982,-7.25 -0.31028,0 -3.00071,-1.8 -5.97874,-4 -2.97803,-2.2 -5.88382,-4 -6.4573,-4 -0.57349,0 -1.0427,-0.41968 -1.0427,-0.93261 0,-0.51294 -0.7875,-1.18523 -1.75,-1.49398 -3.93759,-1.26309 -14.23748,-11.2582 -14.24492,-13.82341 -0.003,-0.9625 -0.68008,-1.75 -1.50508,-1.75 -4.57384,0 1.339,8.59992 9.83935,14.31084 3.93836,2.64596 9.70684,6.69596 12.81885,9 3.11201,2.30404 12.71718,9.33162 21.34482,15.61685 8.62765,6.28523 18.32331,13.48523 21.54593,16 3.22262,2.51477 7.4666,5.69731 9.43108,7.07231 1.96447,1.375 6.59762,4.75994 10.29587,7.52208 3.69826,2.76215 16.6241,12.1877 28.7241,20.94568 40.72712,29.47827 37.42791,27.271 38.76443,25.93447 z M 533.45314,440.25 c 1.00663,-2.39055 7.77127,-8.25 9.5245,-8.25 0.34117,0 6.11927,-3.74168 12.84023,-8.31485 6.72095,-4.57317 13.79492,-9.26467 15.71992,-10.42557 l 3.5,-2.11072 0.19764,3.67557 c 0.18036,3.3544 -0.32207,4.11185 -5.75,8.66851 -3.2712,2.74612 -5.94764,5.55862 -5.94764,6.25 0,1.98352 3.81886,1.46405 4.96375,-0.67522 0.56877,-1.06275 1.8221,-2.18513 2.78519,-2.49418 0.96308,-0.30905 2.65106,-1.91323 3.75106,-3.56485 1.1,-1.65162 2.68729,-3.00423 3.52732,-3.00581 0.84002,-0.002 2.72369,-1.24038 4.18592,-2.75288 1.46223,-1.5125 4.49334,-4.325 6.73578,-6.25 2.24244,-1.925 5.56573,-4.9625 7.38508,-6.75 1.81935,-1.7875 3.82808,-3.25 4.46385,-3.25 0.63577,0 1.92217,-1.16941 2.85867,-2.59869 0.9365,-1.42928 2.50674,-2.89611 3.48942,-3.25963 0.98268,-0.36352 4.16432,-2.78362 7.07032,-5.37801 2.906,-2.59439 9.76128,-8.44005 15.23396,-12.99037 5.47267,-4.55031 17.39767,-14.46112 26.5,-22.02401 21.447,-17.81976 28.04968,-23.66944 28.04968,-24.85079 0,-2.96072 -3.93826,-1.1938 -14.14946,6.34824 -6.2428,4.61096 -16.07554,11.67419 -21.85054,15.69607 -5.775,4.02187 -15.9,11.32752 -22.5,16.23476 -6.6,4.90724 -16.275,12.08922 -21.5,15.95994 -10.39793,7.70287 -12.09696,8.97752 -19.5,14.62933 -5.44024,4.15332 -28.98751,21.11461 -31.56033,22.73316 -6.48202,4.07782 -11.3943,7.69851 -13.44107,9.90701 -1.32171,1.42614 -2.70895,2.59299 -3.08277,2.59299 -0.99893,0 -7.41583,6.98399 -7.41583,8.0712 0,2.06556 2.83371,0.74747 3.91535,-1.8212 z m -12.39685,-12.72015 c 8.46351,-5.89575 20.47152,-13.85429 32.4815,-21.52776 6.325,-4.04119 16.45,-10.60435 22.5,-14.58479 6.05,-3.98044 19.1,-12.32359 29,-18.54033 9.9,-6.21675 19.88517,-12.66978 22.18926,-14.34007 2.30409,-1.6703 7.47909,-5.0321 11.5,-7.47069 8.0042,-4.85435 47.51763,-30.4446 63.12799,-40.88383 10.02855,-6.70648 12.97358,-9.74981 10.39312,-10.74003 -0.75673,-0.29038 -10.11364,3.81578 -20.79312,9.12482 -22.5706,11.22039 -73.39115,36.19218 -92.91725,45.65691 -7.425,3.59906 -21.81076,10.88708 -31.96836,16.19559 -10.1576,5.30851 -19.6076,9.9228 -21,10.25397 -1.3924,0.33117 -2.98164,0.92528 -3.53164,1.32024 -0.55,0.39496 -3.7,2.21089 -7,4.0354 -21.10882,11.67072 -19.5638,11.21808 -25.5,7.47072 -2.17814,-1.375 -4.30789,-2.5 -4.73277,-2.5 -0.42488,0 -7.07132,-3.38242 -14.76987,-7.51648 -7.69855,-4.13407 -15.10102,-7.80573 -16.44994,-8.15925 -1.34891,-0.35353 -13.04891,-6.02231 -26,-12.5973 C 418.72074,348.07308 317.75427,299 316.46879,299 c -0.51205,0 -0.931,0.85525 -0.931,1.90055 0,1.39215 8.76054,7.6372 32.75,23.3462 18.0125,11.79511 37.925,24.71151 44.25,28.70311 6.325,3.99159 13.75,8.71931 16.5,10.50602 2.75,1.78672 8.15,5.26229 12,7.72349 3.85,2.4612 15.04273,9.6152 24.87274,15.89777 17.95096,11.47285 40.80177,26.37965 56.62726,36.94096 12.37972,8.26175 11.84525,8.16039 18.5185,3.51175 z M 506.65978,423.729 c -3.5079,-2.32595 -7.3329,-4.79448 -8.5,-5.48562 -1.16709,-0.69114 -8.19699,-5.66301 -15.62199,-11.04861 l -13.5,-9.79199 v -9.70029 c 0,-5.33515 0.0137,-9.70077 0.0304,-9.70138 0.81688,-0.0298 20.80045,8.99566 31.21164,14.09653 l 14.242,6.97773 8.758,-4.50109 c 12.17793,-6.25874 27.72632,-13.33347 31.73756,-14.44102 3.77165,-1.04141 3.9931,-0.74491 6.98957,9.35806 l 1.48039,4.99131 -3.22476,2.8308 c -8.50686,7.4676 -43.36639,30.71031 -45.99237,30.66557 -0.67782,-0.0115 -4.10249,-1.92404 -7.6104,-4.25 z"
       id="path1" />
  </g>
</svg>
